# xmcd
#
# Track frame offsets: 
#        150
#        18546
#        31503
#        50493
#        67311
#
# Disc length: 1226 seconds
#
# Revision: 0
# Processed by: cddbd v1.5.2PL0 Copyright (c) Steve Scherf et al.
# Submitted via: ExactAudioCopyFreeDBPlugin 1.0
#
DISCID=3d04c805
DTITLE=みくまり - Local Train Runnin'
DYEAR=2011
DGENRE=Rock
TTITLE0=My Lovely Zombie
TTITLE1=さよならベイビー
TTITLE2=あしたの呪文
TTITLE3=すべてのうた
TTITLE4=貨物列車
EXTD=
EXTT0=
EXTT1=
EXTT2=
EXTT3=
EXTT4=
PLAYORDER=
